<!DOCTYPE svg PUBLIC "-//W3C//DTD SVG 1.1//EN" "http://www.w3.org/Graphics/SVG/1.1/DTD/svg11.dtd">
<!-- Uploaded to: SVG Repo, www.svgrepo.com, Transformed by: SVG Repo Mixer Tools -->
<svg height="800px" width="800px" version="1.1" id="Layer_1" xmlns="http://www.w3.org/2000/svg" xmlns:xlink="http://www.w3.org/1999/xlink" viewBox="0 0 496.2 496.2" xml:space="preserve" fill="#000000">
<g id="SVGRepo_bgCarrier" stroke-width="0"/>
<g id="SVGRepo_tracerCarrier" stroke-linecap="round" stroke-linejoin="round"/>
<g id="SVGRepo_iconCarrier"> <path style="fill:#e26060;" d="M496.2,248.1C496.2,111.1,385.1,0,248.1,0S0,111.1,0,248.1s111.1,248.1,248.1,248.1 S496.2,385.1,496.2,248.1z"/> <g> <path style="fill:#FFFFFF;" d="M247.2,137.8l-59.5-59.5c-4.1-4.1-10.7-4.1-14.7,0l-94.4,94.4c-4.1,4.1-4.1,10.7,0,14.7l59.5,59.5 c4.1,4.1,10.7,4.1,14.7,0l94.4-94.4C251.3,148.5,251.3,141.9,247.2,137.8z"/> <path style="fill:#FFFFFF;" d="M66.8,161l94.4-94.4c4.1-4.1,4.1-10.7,0-14.7L136,26.7c-22.9,11.6-44.3,26.9-63.4,46 c-19,19-34.3,40.3-45.8,63L52.1,161C56.2,165,62.7,165,66.8,161z"/> <path style="fill:#FFFFFF;" d="M332.4,223l-59.5-59.5c-4.1-4.1-10.7-4.1-14.7,0l-94.4,94.4c-4.1,4.1-4.1,10.7,0,14.7l59.5,59.5 c4.1,4.1,10.7,4.1,14.7,0l94.4-94.4C336.4,233.6,336.4,227,332.4,223z"/> <path style="fill:#FFFFFF;" d="M417.8,308.4l-59.5-59.5c-4.1-4.1-10.7-4.1-14.7,0l-94.4,94.4c-4.1,4.1-4.1,10.7,0,14.7l59.5,59.5 c4.1,4.1,10.7,4.1,14.7,0l94.4-94.4C421.8,319,421.8,312.4,417.8,308.4z"/> <path style="fill:#FFFFFF;" d="M428.8,334.1l-94.4,94.4c-4.1,4.1-4.1,10.7,0,14.7l26,26c22.7-11.5,44-26.8,63-45.8 c19.1-19.1,34.4-40.6,46-63.4l-25.9-25.9C439.5,330.1,432.9,330.1,428.8,334.1z"/> </g> <path style="fill:#3A3A38;" d="M334.4,443.3c-4.1-4.1-4.1-10.7,0-14.7l94.4-94.4c4.1-4.1,10.7-4.1,14.7,0l25.9,25.9 c0.4-0.8,0.8-1.6,1.2-2.4c0.4-0.8,0.8-1.6,1.1-2.4c5.4-11.2,9.8-22.7,13.4-34.4l-310-310c-11.7,3.6-23.2,8-34.4,13.4 c-0.8,0.4-1.6,0.8-2.4,1.1c-0.8,0.4-1.6,0.8-2.4,1.2l25.2,25.2c4.1,4.1,4.1,10.7,0,14.7l-94.4,94.4c-4.1,4.1-10.7,4.1-14.7,0 l-25.3-25.3c-0.3,0.6-0.6,1.1-0.8,1.7c-0.7,1.3-1.3,2.6-1.9,4c-5.2,11-9.6,22.2-13.1,33.7l310.2,310.2c11.5-3.5,22.7-7.9,33.7-13.1 c1.3-0.6,2.7-1.3,4-1.9c0.6-0.3,1.1-0.6,1.7-0.8L334.4,443.3z M471.3,320.2c1-1,2.7-1,3.8,0l2.1,2.1c1,1,1,2.7,0,3.8l-13.4,13.4 c-1,1-2.7,1-3.8,0l-2.1-2.1c-1-1-1-2.7,0-3.8L471.3,320.2z M453.5,302.4c1-1,2.7-1,3.8,0l2.1,2.1c1,1,1,2.7,0,3.8L446,321.7 c-1,1-2.7,1-3.8,0l-2.1-2.1c-1-1-1-2.7,0-3.8L453.5,302.4z M435.7,284.7c1-1,2.7-1,3.8,0l2.1,2.1c1,1,1,2.7,0,3.8L428.2,304 c-1,1-2.7,1-3.8,0l-2.1-2.1c-1-1-1-2.7,0-3.8L435.7,284.7z M418,266.9c1-1,2.7-1,3.8,0l2.1,2.1c1,1,1,2.7,0,3.8l-13.4,13.4 c-1,1-2.7,1-3.8,0l-2.1-2.1c-1-1-1-2.7,0-3.8L418,266.9z M400.2,249.1c1-1,2.7-1,3.8,0l2.1,2.1c1,1,1,2.7,0,3.8l-13.4,13.4 c-1,1-2.7,1-3.8,0l-2.1-2.1c-1-1-1-2.7,0-3.8L400.2,249.1z M382.4,231.3c1-1,2.7-1,3.8,0l2.1,2.1c1,1,1,2.7,0,3.8l-13.4,13.4 c-1,1-2.7,1-3.8,0l-2.1-2.1c-1-1-1-2.7,0-3.8L382.4,231.3z M364.7,213.6c1-1,2.7-1,3.8,0l2.1,2.1c1,1,1,2.7,0,3.8l-13.4,13.4 c-1,1-2.7,1-3.8,0l-2.1-2.1c-1-1-1-2.7,0-3.8L364.7,213.6z M346.9,195.8c1-1,2.7-1,3.8,0l2.1,2.1c1,1,1,2.7,0,3.8l-13.4,13.4 c-1,1-2.7,1-3.8,0l-2.1-2.1c-1-1-1-2.7,0-3.8L346.9,195.8z M329.1,178c1-1,2.7-1,3.8,0l2.1,2.1c1,1,1,2.7,0,3.8l-13.4,13.4 c-1,1-2.7,1-3.8,0l-2.1-2.1c-1-1-1-2.7,0-3.8L329.1,178z M311.3,160.3c1-1,2.7-1,3.8,0l2.1,2.1c1,1,1,2.7,0,3.8l-13.4,13.4 c-1,1-2.7,1-3.8,0l-2.1-2.1c-1-1-1-2.7,0-3.8L311.3,160.3z M293.6,142.5c1-1,2.7-1,3.8,0l2.1,2.1c1,1,1,2.7,0,3.8l-13.4,13.4 c-1,1-2.7,1-3.8,0l-2.1-2.1c-1-1-1-2.7,0-3.8L293.6,142.5z M275.8,124.7c1-1,2.7-1,3.8,0l2.1,2.1c1,1,1,2.7,0,3.8L268.3,144 c-1,1-2.7,1-3.8,0l-2.1-2.1c-1-1-1-2.7,0-3.8L275.8,124.7z M258,106.9c1-1,2.7-1,3.8,0l2.1,2.1c1,1,1,2.7,0,3.8l-13.4,13.4 c-1,1-2.7,1-3.8,0l-2.1-2.1c-1-1-1-2.7,0-3.8L258,106.9z M240.3,89.2c1-1,2.7-1,3.8,0l2.1,2.1c1,1,1,2.7,0,3.8l-13.4,13.4 c-1,1-2.7,1-3.8,0l-2.1-2.1c-1-1-1-2.7,0-3.8L240.3,89.2z M222.5,71.4c1-1,2.7-1,3.8,0l2.1,2.1c1,1,1,2.7,0,3.8L215,90.7 c-1,1-2.7,1-3.8,0l-2.1-2.1c-1-1-1-2.7,0-3.8L222.5,71.4z M204.7,53.6c1-1,2.7-1,3.8,0l2.1,2.1c1,1,1,2.7,0,3.8l-13.4,13.4 c-1,1-2.7,1-3.8,0l-2.1-2.1c-1-1-1-2.7,0-3.8L204.7,53.6z M186.9,35.9c1-1,2.7-1,3.8,0l2.1,2.1c1,1,1,2.7,0,3.8l-13.3,13.3 c-1,1-2.7,1-3.8,0l-2.1-2.1c-1-1-1-2.7,0-3.8L186.9,35.9z M169.2,18.1c1-1,2.7-1,3.8,0l2.1,2.1c1,1,1,2.7,0,3.8l-13.4,13.4 c-1,1-2.7,1-3.8,0l-2.1-2.1c-1-1-1-2.7,0-3.8L169.2,18.1z M23.8,175.2c-1,1-2.7,1-3.8,0l-2.1-2.1c-1-1-1-2.7,0-3.8l13.4-13.4 c1-1,2.7-1,3.8,0l2.1,2.1c1,1,1,2.7,0,3.8L23.8,175.2z M41.6,193c-1,1-2.7,1-3.8,0l-2.1-2.1c-1-1-1-2.7,0-3.8l13.4-13.4 c1-1,2.7-1,3.8,0l2.1,2.1c1,1,1,2.7,0,3.8L41.6,193z M59.4,210.8c-1,1-2.7,1-3.8,0l-2.1-2.1c-1-1-1-2.7,0-3.8l13.4-13.4 c1-1,2.7-1,3.8,0l2.1,2.1c1,1,1,2.7,0,3.8L59.4,210.8z M77.1,228.6c-1,1-2.7,1-3.8,0l-2.1-2.1c-1-1-1-2.7,0-3.8l13.4-13.4 c1-1,2.7-1,3.8,0l2.1,2.1c1,1,1,2.7,0,3.8L77.1,228.6z M94.9,246.3c-1,1-2.7,1-3.8,0l-2.1-2.1c-1-1-1-2.7,0-3.8l13.4-13.4 c1-1,2.7-1,3.8,0l2.1,2.1c1,1,1,2.7,0,3.8L94.9,246.3z M112.7,264.1c-1,1-2.7,1-3.8,0l-2.1-2.1c-1-1-1-2.7,0-3.8l13.4-13.4 c1-1,2.7-1,3.8,0l2.1,2.1c1,1,1,2.7,0,3.8L112.7,264.1z M152.8,247c-4.1,4.1-10.7,4.1-14.7,0l-59.5-59.5c-4.1-4.1-4.1-10.7,0-14.7 L173,78.4c4.1-4.1,10.7-4.1,14.7,0l59.5,59.5c4.1,4.1,4.1,10.7,0,14.7L152.8,247z M130.5,281.9c-1,1-2.7,1-3.8,0l-2.1-2.1 c-1-1-1-2.7,0-3.8l13.4-13.4c1-1,2.7-1,3.8,0l2.1,2.1c1,1,1,2.7,0,3.8L130.5,281.9z M148.2,299.6c-1,1-2.7,1-3.8,0l-2.1-2.1 c-1-1-1-2.7,0-3.8l13.4-13.4c1-1,2.7-1,3.8,0l2.1,2.1c1,1,1,2.7,0,3.8L148.2,299.6z M166,317.4c-1,1-2.7,1-3.8,0l-2.1-2.1 c-1-1-1-2.7,0-3.8l13.4-13.4c1-1,2.7-1,3.8,0l2.1,2.1c1,1,1,2.7,0,3.8L166,317.4z M183.8,335.2c-1,1-2.7,1-3.8,0l-2.1-2.1 c-1-1-1-2.7,0-3.8l13.4-13.4c1-1,2.7-1,3.8,0l2.1,2.1c1,1,1,2.7,0,3.8L183.8,335.2z M201.5,353c-1,1-2.7,1-3.8,0l-2.1-2.1 c-1-1-1-2.7,0-3.8l13.4-13.4c1-1,2.7-1,3.8,0l2.1,2.1c1,1,1,2.7,0,3.8L201.5,353z M237.9,332.1c-4.1,4.1-10.7,4.1-14.7,0l-59.5-59.5 c-4.1-4.1-4.1-10.7,0-14.7l94.4-94.4c4.1-4.1,10.7-4.1,14.7,0l59.5,59.5c4.1,4.1,4.1,10.7,0,14.7L237.9,332.1z M219.3,370.7 c-1,1-2.7,1-3.8,0l-2.1-2.1c-1-1-1-2.7,0-3.8l13.4-13.4c1-1,2.7-1,3.8,0l2.1,2.1c1,1,1,2.7,0,3.8L219.3,370.7z M237.1,388.5 c-1,1-2.7,1-3.8,0l-2.1-2.1c-1-1-1-2.7,0-3.8l13.4-13.4c1-1,2.7-1,3.8,0l2.1,2.1c1,1,1,2.7,0,3.8L237.1,388.5z M254.9,406.3 c-1,1-2.7,1-3.8,0l-2.1-2.1c-1-1-1-2.7,0-3.8l13.4-13.4c1-1,2.7-1,3.8,0l2.1,2.1c1,1,1,2.7,0,3.8L254.9,406.3z M272.6,424 c-1,1-2.7,1-3.8,0l-2.1-2.1c-1-1-1-2.7,0-3.8l13.4-13.4c1-1,2.7-1,3.8,0l2.1,2.1c1,1,1,2.7,0,3.8L272.6,424z M290.4,441.8 c-1,1-2.7,1-3.8,0l-2.1-2.1c-1-1-1-2.7,0-3.8l13.4-13.4c1-1,2.7-1,3.8,0l2.1,2.1c1,1,1,2.7,0,3.8L290.4,441.8z M323.3,417.5 c-4.1,4.1-10.7,4.1-14.7,0L249.1,358c-4.1-4.1-4.1-10.7,0-14.7l94.4-94.4c4.1-4.1,10.7-4.1,14.7,0l59.5,59.5 c4.1,4.1,4.1,10.7,0,14.7L323.3,417.5z M308.2,459.6c-1,1-2.7,1-3.8,0l-2.1-2.1c-1-1-1-2.7,0-3.8l13.4-13.4c1-1,2.7-1,3.8,0l2.1,2.1 c1,1,1,2.7,0,3.8L308.2,459.6z M325.9,477.4c-1,1-2.7,1-3.8,0l-2.1-2.1c-1-1-1-2.7,0-3.8l13.4-13.4c1-1,2.7-1,3.8,0l2.1,2.1 c1,1,1,2.7,0,3.8L325.9,477.4z"/> </g>
</svg>